<svg width="512" height="512" viewBox="0 0 512 512" fill="#bada55" xmlns="http://www.w3.org/2000/svg">
  <path d="M256 48C149.9 48 62.4 127.4 49.6 230C59 226.2 69.2 224 80 224C106.5 224 128 245.5 128 272V400C128 426.5 106.5 448 80 448C35.8 448 0 412.2 0 368V352V304V256C0 114.6 114.6 0 256 0C397.4 0 512 114.6 512 256V304V352V368C512 412.2 476.2 448 432 448C405.5 448 384 426.5 384 400V272C384 245.5 405.5 224 432 224C442.8 224 453 226.1 462.4 230C449.6 127.4 362.1 48 256 48Z" />
  <path d="M396.909 229.5H382.818C375.033 229.5 368.727 235.821 368.727 243.625V286C368.727 352.034 311.932 405.021 244.736 398.453C186.171 392.723 143.273 339.949 143.273 280.968V243.625C143.273 235.821 136.967 229.5 129.182 229.5H115.091C107.306 229.5 101 235.821 101 243.625V279.079C101 358.214 157.337 428.76 234.864 439.477V469.625H185.545C177.76 469.625 171.455 475.946 171.455 483.75V497.875C171.455 505.679 177.76 512 185.545 512H326.455C334.24 512 340.545 505.679 340.545 497.875V483.75C340.545 475.946 334.24 469.625 326.455 469.625H277.136V439.812C352.62 429.431 411 364.482 411 286V243.625C411 235.821 404.694 229.5 396.909 229.5ZM256 370.75C302.694 370.75 340.545 332.807 340.545 286H265.397C260.21 286 256 282.84 256 278.938V264.812C256 260.91 260.21 257.75 265.397 257.75H340.545V229.5H265.397C260.21 229.5 256 226.34 256 222.438V208.312C256 204.41 260.21 201.25 265.397 201.25H340.545V173H265.397C260.21 173 256 169.84 256 165.938V151.812C256 147.91 260.21 144.75 265.397 144.75H340.545C340.545 97.9433 302.694 60 256 60C209.306 60 171.455 97.9433 171.455 144.75V286C171.455 332.807 209.306 370.75 256 370.75Z" />
</svg>